<mxfile host="app.diagrams.net" modified="2023-09-11T20:33:28.005Z" agent="Mozilla/5.0 (Windows NT 10.0; Win64; x64) AppleWebKit/537.36 (KHTML, like Gecko) Chrome/116.0.0.0 Safari/537.36" version="21.7.4" etag="lo6X2iSAQ1Lla95SFBEs" type="github">
  <diagram name="Page-1" id="5cM_U98hyAv5uVVu_wwB">
    <mxGraphModel>
      <root>
        <mxCell id="0" />
        <mxCell id="1" parent="0" />
      </root>
    </mxGraphModel>
  </diagram>
</mxfile>
